<svg xmlns="http://www.w3.org/2000/svg" width="129" height="32" viewBox="0 0 129 32">
  <g id="Group_22828" data-name="Group 22828" transform="translate(-23 -1140)">
    <path id="Path_10723" data-name="Path 10723" d="M8,0H121a8,8,0,0,1,8,8V24a8,8,0,0,1-8,8H8a8,8,0,0,1-8-8V8A8,8,0,0,1,8,0Z" transform="translate(23 1140)" fill="#1a1615"/>
    <g id="Group_22773" data-name="Group 22773" transform="translate(-3 472)">
      <text id="Add_to_Cart" data-name="Add to Cart" transform="translate(66 690)" fill="#fff" font-size="14" font-family="HelveticaNeue-Bold, Helvetica Neue" font-weight="700"><tspan x="0" y="0">Add to Cart</tspan></text>
      <path id="shopping-cart" d="M6.57,43.221a.748.748,0,0,1,0-1.5c2.76.01,10.038,0,12.886,0a1.655,1.655,0,0,0,1.62-1.289l1.617-7a1.346,1.346,0,0,0-1.306-1.648c-1.145,0-10.869-.044-15.849-.064L4.749,28.8A1.612,1.612,0,0,0,3.2,27.609H.666a.666.666,0,0,0,0,1.332H3.2a.277.277,0,0,1,.267.2L6.494,40.394a2.079,2.079,0,0,0-2,2.115,2.09,2.09,0,0,0,2.08,2.044h.971a2.332,2.332,0,1,0,4.213,0h4.207a2.332,2.332,0,1,0,4.2-.035.666.666,0,0,0-.212-1.3Zm4.077,2.332a1,1,0,1,1-1-1h0A1,1,0,0,1,10.647,45.553Zm7.42,1a1,1,0,0,1-.016-2h.032a1,1,0,0,1-.016,2Zm3.325-13.423a.011.011,0,0,1,0,.011l-.681,2.95H18.406l.393-2.977,2.583.01A.011.011,0,0,1,21.392,33.128ZM14.524,40.4V37.422h2.363L16.494,40.4Zm-3.3,0-.4-2.975h2.367V40.4Zm-3.067,0h0a.361.361,0,0,1-.348-.266l-.73-2.709H9.48l.4,2.975Zm2.494-4.307-.4-3.011,2.945.012v3Zm3.877,0V33.1l2.932.012-.394,2.982ZM8.9,33.073l.4,3.017H6.714L5.9,33.061ZM19.456,40.4H17.838l.393-2.975h2.175l-.628,2.719A.329.329,0,0,1,19.456,40.4Z" transform="translate(33.772 646.391)" fill="#fff"/>
    </g>
  </g>
</svg>
