<svg xmlns="http://www.w3.org/2000/svg" width="151" height="32" viewBox="0 0 151 32">
  <g id="Group_22764" data-name="Group 22764" transform="translate(-12 -3456)">
    <path id="Path_10629" data-name="Path 10629" d="M-36,0H99a8,8,0,0,1,8,8V24a8,8,0,0,1-8,8H-36a8,8,0,0,1-8-8V8A8,8,0,0,1-36,0Z" transform="translate(56 3456)" fill="#1c1615"/>
    <text id="Send_Enquiry" data-name="Send Enquiry" transform="translate(55 3477)" fill="#fff" font-size="14" font-family="Roboto-Bold, Roboto" font-weight="700"><tspan x="0" y="0">SEND ENQUIRY</tspan></text>
    <path id="Path_10630" data-name="Path 10630" d="M8.532,12.535a.743.743,0,1,0,0,1.487H16.5a.743.743,0,0,0,0-1.487Z" transform="translate(17.854 3456.911)" fill="#fff"/>
    <path id="Path_10631" data-name="Path 10631" d="M12.117,17.644H8.532a.743.743,0,1,0,0,1.487h3.584a.743.743,0,1,0,0-1.487Z" transform="translate(17.854 3456.022)" fill="#fff"/>
    <path id="Path_10632" data-name="Path 10632" d="M10.926,24.23H5.267a2.212,2.212,0,0,1-2.206-2.214V6.957A2.212,2.212,0,0,1,5.267,4.743H6.8V4.93A1.968,1.968,0,0,0,8.77,6.9h7.1A1.968,1.968,0,0,0,17.841,4.93V4.743h1.528a2.186,2.186,0,0,1,2.2,2.214v4.238a.743.743,0,0,0,1.487,0V6.957a3.7,3.7,0,0,0-3.693-3.7H17.84v-.19A1.968,1.968,0,0,0,15.873,1.1h-7.1A1.968,1.968,0,0,0,6.8,3.066v.19H5.267a3.7,3.7,0,0,0-3.693,3.7V22.016a3.7,3.7,0,0,0,3.693,3.7h5.659a.743.743,0,0,0,0-1.487ZM8.291,3.066a.479.479,0,0,1,.479-.479h7.1a.479.479,0,0,1,.479.479V4.929a.479.479,0,0,1-.479.479H8.77a.479.479,0,0,1-.479-.479Z" transform="translate(18.935 3458.9)" fill="#fff"/>
    <path id="Path_10633" data-name="Path 10633" d="M27.115,17.2a2.76,2.76,0,0,0-3.813,0L16.71,23.788a1.434,1.434,0,0,0-.4.778l-.362,2.139a1.44,1.44,0,0,0,1.659,1.658L19.744,28a1.434,1.434,0,0,0,.778-.4l6.591-6.591a2.7,2.7,0,0,0,0-3.812ZM19.5,26.537l-2.083.416.349-2.112,4.724-4.724L24.2,21.826Zm6.566-6.579-.815.816-1.71-1.71.815-.815a1.209,1.209,0,0,1,1.709,1.709Z" transform="translate(16.438 3456.233)" fill="#fff"/>
  </g>
</svg>
