<svg xmlns="http://www.w3.org/2000/svg" width="15.424" height="20" viewBox="0 0 15.424 20">
  <g id="share" transform="translate(-8.226 -3.546)">
    <path id="Path_10724" data-name="Path 10724" d="M21.45,9.555h-2a.733.733,0,0,0,0,1.467h2a.734.734,0,0,1,.733.733v9.59a.734.734,0,0,1-.733.733H10.426a.734.734,0,0,1-.733-.733v-9.59a.734.734,0,0,1,.733-.733h2a.733.733,0,0,0,0-1.467h-2a2.2,2.2,0,0,0-2.2,2.2v9.59a2.2,2.2,0,0,0,2.2,2.2H21.45a2.2,2.2,0,0,0,2.2-2.2v-9.59a2.2,2.2,0,0,0-2.2-2.2ZM13.2,8.075l2.025-2.025V15.7a.733.733,0,0,0,1.467,0V6.049l2.025,2.025a.733.733,0,1,0,1.037-1.037L16.481,3.76a.734.734,0,0,0-1.037,0L12.167,7.038A.733.733,0,1,0,13.2,8.075Z" fill="#707070"/>
  </g>
</svg>
